<svg width="683" height="500" viewBox="0 0 683 500" fill="none" xmlns="http://www.w3.org/2000/svg">
<path d="M652.076 244.54C637.408 227.393 617.638 211.65 593.276 197.753L594.731 191.061L594.157 188.623L593.923 188.562C594.342 184.247 594.67 179.85 594.906 175.31C595.551 161.854 595.551 148.007 595.551 134.048C595.551 113.754 587.413 93.7585 572.018 76.2223C551.511 52.9163 519.934 34.1195 478.179 20.3451C437.47 7.05177 390.089 0.0106603 341.129 0C275.689 0.0506363 213.816 12.5658 166.927 35.2269C142.944 46.8599 123.88 60.6543 110.209 76.2849C94.8351 93.8104 86.7187 113.774 86.728 135.135C86.728 152.354 86.728 170.115 88.1538 187.241L87.4875 187.344L89.0959 197.716C64.6213 211.676 44.7585 227.469 30.0513 244.708C10.3831 267.734 -0.00932109 293.765 6.64742e-06 319.993C-0.00932109 345.338 9.79813 370.51 28.2364 393.007L28.1551 393.068L30.1633 395.436L30.1726 395.447C57.343 427.147 99.487 452.75 155.467 471.597C210.514 490.045 274.714 499.803 341.138 499.812C429.782 499.751 513.485 482.46 576.835 451.099C608.771 435.234 634.076 416.509 652.084 395.436C671.793 372.397 682.236 346.364 682.256 319.932C682.268 293.705 671.834 267.63 652.076 244.54ZM275.752 76.9165L342.78 40.7689L406.508 75.1336V100.418L339.479 136.566L275.752 102.212V76.9165ZM200.882 269.721C177.893 260.231 158.513 248.189 144.87 234.895C141.139 231.267 137.676 227.352 134.591 223.222L135.063 222.709L131.424 218.722C126.821 211.672 123.697 204.333 122.128 197.057C121.123 190.835 120.396 183.343 119.965 174.785C138.721 199.751 174.418 220.649 221.759 234.218V303.451C221.759 317.779 233.421 329.442 247.751 329.442C262.09 329.442 273.743 317.779 273.743 303.451V272.325C273.743 266.503 278.478 261.768 284.299 261.768C290.121 261.768 294.835 266.504 294.835 272.325C294.835 284.532 304.777 294.453 316.983 294.453C329.189 294.453 339.111 284.532 339.111 272.325V250.023L341.139 250.043C441.231 250.043 528.369 220.096 562.283 174.817C562.088 178.609 561.842 182.288 561.534 185.802C561.226 189.081 560.858 192.187 560.468 194.914C558.275 204.004 554.318 212.808 548.578 221.203L547.247 222.842L547.38 222.976C544.868 226.482 542.244 229.709 539.375 232.826C522.136 251.437 495.51 266.893 462.364 277.552C427.722 288.724 385.855 294.627 341.138 294.627H338.844V317.893H341.138C404.415 317.872 460.632 306.885 503.718 286.131C525.241 275.729 542.982 263.112 556.418 248.631C558.293 246.621 560.078 244.541 561.779 242.44C562.24 244.612 562.537 247.554 562.691 251.316C562.936 256.718 562.936 264.026 562.936 273.966C562.925 286.306 557.73 298.544 547.47 310.339C531.481 328.727 503.266 345.186 468.019 356.675C430.59 368.923 386.744 375.411 340.869 375.411C281.189 375.411 222.965 363.769 181.117 343.465C161.347 333.881 145.328 322.423 134.803 310.339C124.543 298.544 119.336 286.306 119.316 273.966C119.284 256.42 119.428 247.554 120.413 242.789C122.956 245.782 125.711 248.723 128.643 251.593C144.684 267.14 165.99 280.485 192.013 291.225L194.125 292.108L203.001 270.606L200.882 269.721ZM627.283 374.282C604.827 400.725 565.46 424.298 516.429 440.696C464.661 458.048 404.038 467.221 340.965 467.221C257.231 467.221 178.733 451.131 119.913 421.899C92.2927 408.206 69.8368 391.746 54.9857 374.282C40.1439 356.838 32.6125 338.576 32.6018 319.993C32.6125 301.473 40.1146 283.24 54.8924 265.826C66.2803 252.421 81.7043 239.886 100.798 228.499C99.9268 230.323 99.1992 232.187 98.6262 234.085C97.3257 238.482 96.6487 243.176 96.3209 250.269C96.0544 256.417 96.0544 263.931 96.0544 273.964C96.0438 291.91 103.382 309.785 117.279 325.639C136.353 347.398 167.388 365.775 206.989 378.781C246.756 391.788 293.132 398.665 341.138 398.674C405.205 398.644 465.622 386.468 511.263 364.383C534.128 353.292 552.206 340.245 564.988 325.641C578.876 309.776 586.214 291.901 586.203 273.965L586.193 269.794C586.183 254.657 586.172 245.525 584.482 237.396C583.837 234.261 582.812 231.277 581.469 228.52C600.523 239.878 615.896 252.359 627.261 265.705C642.112 283.169 649.645 301.433 649.656 319.995C649.645 338.574 642.114 356.838 627.283 374.282Z" fill="white"/>
</svg>
